<?xml version="1.0" encoding="UTF-8" standalone="no"?>
<!DOCTYPE svg PUBLIC "-//W3C//DTD SVG 1.1//EN" "http://www.w3.org/Graphics/SVG/1.1/DTD/svg11.dtd">
<svg version="1.1" xmlns="http://www.w3.org/2000/svg" xmlns:xlink="http://www.w3.org/1999/xlink" preserveAspectRatio="xMidYMid meet" viewBox="0 0 640 640" width="640" height="640"><defs><path d="M320 559.63C342 559.63 360 541.63 360 519.63C360 479.7 360 160.3 360 120.37C360 98.37 342 80.37 320 80.37C320 80.37 320 80.37 320 80.37C298 80.37 280 98.37 280 120.37C280 160.3 280 479.7 280 519.63C280 541.63 298 559.63 320 559.63C320 559.63 320 559.63 320 559.63Z" id="j329xeOOWM"></path><path d="M495.93 296.3C511.49 280.74 511.49 255.29 495.93 239.73C481.16 224.96 363.01 106.81 348.24 92.04C332.68 76.48 307.23 76.48 291.67 92.04C291.67 92.04 291.67 92.04 291.67 92.04C276.11 107.6 276.11 133.05 291.67 148.61C306.44 163.38 424.59 281.53 439.36 296.3C454.91 311.85 480.37 311.85 495.93 296.3C495.93 296.3 495.93 296.3 495.93 296.3Z" id="dbhiNNucL"></path><path d="M142.41 296.3C126.85 280.74 126.85 255.29 142.41 239.73C157.18 224.96 275.33 106.81 290.1 92.04C305.66 76.48 331.11 76.48 346.67 92.04C346.67 92.04 346.67 92.04 346.67 92.04C362.23 107.6 362.23 133.05 346.67 148.61C331.9 163.38 213.74 281.53 198.97 296.3C183.42 311.85 157.96 311.85 142.41 296.3C142.41 296.3 142.41 296.3 142.41 296.3Z" id="k6SZZxJ2k"></path></defs><g><g><g><use xlink:href="#j329xeOOWM" opacity="1" fill="#ff7f00" fill-opacity="1"></use><g><use xlink:href="#j329xeOOWM" opacity="1" fill-opacity="0" stroke="#000000" stroke-width="1" stroke-opacity="0"></use></g></g><g><use xlink:href="#dbhiNNucL" opacity="1" fill="#ff7f00" fill-opacity="1"></use><g><use xlink:href="#dbhiNNucL" opacity="1" fill-opacity="0" stroke="#000000" stroke-width="1" stroke-opacity="0"></use></g></g><g><use xlink:href="#k6SZZxJ2k" opacity="1" fill="#ff7f00" fill-opacity="1"></use><g><use xlink:href="#k6SZZxJ2k" opacity="1" fill-opacity="0" stroke="#000000" stroke-width="1" stroke-opacity="0"></use></g></g></g></g></svg>